<svg width="45" height="45" viewBox="0 0 45 45" fill="none" xmlns="http://www.w3.org/2000/svg">
<g id="ion:call">
<path id="Vector" d="M34.3651 42.1877C32.6495 42.1877 30.2396 41.5672 26.6308 39.5509C22.2424 37.09 18.8481 34.818 14.4834 30.4648C10.2752 26.2592 8.22736 23.5364 5.36124 18.321C2.12335 12.4323 2.6753 9.34557 3.2923 8.02633C4.02706 6.44958 5.11163 5.50651 6.51349 4.57047C7.30973 4.04879 8.15236 3.60158 9.03068 3.23454C9.11857 3.19674 9.2003 3.16071 9.27325 3.12819C9.70831 2.93219 10.3675 2.636 11.2025 2.95241C11.7597 3.16159 12.2571 3.58961 13.0359 4.35866C14.6328 5.93366 16.8151 9.44137 17.6202 11.164C18.1608 12.3251 18.5185 13.0915 18.5193 13.951C18.5193 14.9574 18.0131 15.7335 17.3987 16.5711C17.2836 16.7284 17.1693 16.8787 17.0586 17.0246C16.3898 17.9035 16.243 18.1575 16.3397 18.611C16.5357 19.5224 17.9973 22.2356 20.3993 24.6324C22.8014 27.0292 25.4363 28.3985 26.3513 28.5936C26.8241 28.6947 27.0834 28.5418 27.9904 27.8492C28.1205 27.7499 28.2541 27.647 28.3939 27.5442C29.3308 26.8472 30.0708 26.3542 31.0534 26.3542H31.0587C31.9139 26.3542 32.646 26.7251 33.8589 27.3368C35.4409 28.1348 39.0541 30.289 40.6388 31.8878C41.4096 32.6647 41.8394 33.1604 42.0494 33.7168C42.3658 34.5544 42.0679 35.2109 41.8736 35.6504C41.8411 35.7233 41.8051 35.8033 41.7673 35.8921C41.3973 36.7688 40.9475 37.6097 40.4234 38.404C39.4892 39.8014 38.5426 40.8834 36.9623 41.619C36.1508 42.0028 35.2628 42.1973 34.3651 42.1877Z" fill="#2789E3"/>
</g>
</svg>
