<svg width="45" height="45" viewBox="0 0 45 45" fill="none" xmlns="http://www.w3.org/2000/svg">
<g id="devicon:twitter">
<path id="Vector" d="M40.3931 13.32C40.4205 13.7169 40.4205 14.1134 40.4205 14.5139C40.4205 26.7131 31.1333 40.7826 14.1518 40.7826V40.7756C9.13503 40.7826 4.22224 39.3457 0 36.6363C0.729492 36.7242 1.4625 36.7681 2.19727 36.7699C6.35523 36.7732 10.3936 35.3786 13.6635 32.8102C11.7369 32.7738 9.86986 32.1363 8.32339 30.9867C6.77692 29.8372 5.62834 28.2331 5.03824 26.3988C6.42234 26.666 7.84828 26.6108 9.20672 26.2395C4.89937 25.3694 1.8007 21.5852 1.8007 17.1903V17.0732C3.08472 17.7886 4.52181 18.1849 5.99098 18.2288C1.93359 15.5176 0.683789 10.1207 3.13348 5.90164C5.45129 8.75374 8.34314 11.0864 11.6212 12.7481C14.8992 14.4097 18.4902 15.3633 22.1607 15.5468C21.7949 13.9713 21.849 12.3274 22.3178 10.7795C22.7865 9.23157 23.6535 7.83382 24.8319 6.72605C28.5504 3.23047 34.3986 3.40976 37.8939 7.12648C39.9615 6.71822 41.9443 5.96016 43.7569 4.88492C43.0676 7.02266 41.6254 8.83731 39.6984 9.99136C41.5286 9.77558 43.3158 9.28552 45 8.53765C43.761 10.3931 42.201 12.0125 40.3931 13.32Z" fill="#1D9BF0"/>
</g>
</svg>
